<?xml version="1.0" standalone="no"?><!DOCTYPE svg PUBLIC "-//W3C//DTD SVG 1.1//EN" "http://www.w3.org/Graphics/SVG/1.1/DTD/svg11.dtd"><svg t="1654260342610" class="icon" viewBox="0 0 1188 1024" version="1.1" xmlns="http://www.w3.org/2000/svg" p-id="2210" xmlns:xlink="http://www.w3.org/1999/xlink" width="232.03125" height="200"><defs><style type="text/css">@font-face { font-family: feedback-iconfont; src: url("//at.alicdn.com/t/font_1031158_u69w8yhxdu.woff2?t=1630033759944") format("woff2"), url("//at.alicdn.com/t/font_1031158_u69w8yhxdu.woff?t=1630033759944") format("woff"), url("//at.alicdn.com/t/font_1031158_u69w8yhxdu.ttf?t=1630033759944") format("truetype"); }
</style></defs><path d="M524.978677 1024A525.019363 525.019363 0 0 1 100.927185 189.499536 526.10431 526.10431 0 0 1 357.801923 1.247689a23.733213 23.733213 0 0 1 15.107885 44.998172 477.566498 477.566498 0 1 0 617.158478 561.460017 23.733213 23.733213 0 0 1 46.232299 10.754536 524.504013 524.504013 0 0 1-511.281222 405.4989z" p-id="2211"></path><path d="M823.745927 680.288825a506.710884 506.710884 0 0 1-303.500331-100.900061 23.733213 23.733213 0 1 1 28.479856-37.973141c128.620454 96.451779 300.950706 118.259211 449.751172 56.959711a23.733213 23.733213 0 1 1 18.09149 43.886102 506.371838 506.371838 0 0 1-192.822187 38.027389zM366.969724 353.801181a23.746775 23.746775 0 0 1-22.4584-16.070775 507.904325 507.904325 0 0 1-3.309088-317.102853 23.733213 23.733213 0 0 1 45.242285 14.348422 462.892591 462.892591 0 0 0 2.983604 287.429556 23.746775 23.746775 0 0 1-22.458401 31.409212zM882.726353 526.592536a74.373109 74.373109 0 0 1-29.008768-5.709533c-16.0979-6.780918-24.574047-16.613249-37.417106-31.517708-2.875109-3.336212-6.12995-7.119964-9.859454-11.324133a315.990782 315.990782 0 0 0-25.347072-25.347071c-25.238577-22.716076-40.468519-36.427092-59.997563-40.25153-9.30342-1.830848-37.59341-7.377639-89.928536 35.030223-4.190607 3.404021-7.581066 6.441872-11.161391 9.669589a198.287606 198.287606 0 0 1-28.479856 22.16004c-15.935157 10.225624-40.03454 25.699679-70.358806 28.14081-33.90459 2.712367-67.999046-11.663179-98.580987-41.648399l-1.437554-1.356183-1.17988-1.640983a134.980955 134.980955 0 0 0-30.676873-28.846025c-0.284799-0.189866-29.83604-18.986571-63.116786-7.675999-42.882526 14.592536-54.844065 67.700686-54.966122 68.229597a23.733213 23.733213 0 0 1-46.395041-9.90014c0.691654-3.254841 17.630387-80.014833 86.104097-103.32763 44.509946-15.148571 86.795751 1.125632 104.778747 13.127858a182.691495 182.691495 0 0 1 41.417847 38.678356c14.307737 13.697455 36.020237 28.995206 60.282362 27.02874 18.498345-1.491802 35.857495-12.639631 48.537811-20.776733a152.095992 152.095992 0 0 0 22.336344-17.481207c3.688819-3.32265 7.879427-7.09284 13.032925-11.269886 17.20997-13.941568 69.558658-56.376553 128.945938-44.754059 32.399227 6.360501 54.559267 26.2964 82.605144 51.534977a362.643499 362.643499 0 0 1 29.117262 29.157948c3.946494 4.461844 7.323392 8.381215 10.306996 11.825921 11.554684 13.412656 14.538288 16.504755 19.854528 18.742458 7.052155 2.970042 13.873758 1.966466 18.850952 1.234127 20.953037-3.078537 40.061664-23.231425 60.282362-44.577756 20.437687-21.563319 41.567028-43.845416 69.165364-52.74198 45.459275-14.646783 98.241941 9.08643 161.38585 72.555823a23.733213 23.733213 0 1 1-33.646915 33.484173c-47.954653-48.212327-87.094112-69.246735-113.173523-60.851958-16.057214 5.16706-32.195799 22.187164-49.270151 40.210844-23.733213 25.03515-50.626334 53.420073-87.840012 58.885492a99.842238 99.842238 0 0 1-15.162133 1.301937z" p-id="2212"></path></svg>